<svg width="32" height="33" viewBox="0 0 32 33" fill="none" xmlns="http://www.w3.org/2000/svg">
<path d="M16 0.5C24.8099 0.5 32 7.69056 32 16.5C32 25.3099 24.8094 32.5 16 32.5C7.19006 32.5 0 25.3094 0 16.5C0 7.69006 7.19056 0.5 16 0.5ZM20.7726 3.20563C21.8704 4.60131 22.6681 6.32687 23.2201 8H27.2737C25.6322 5.82838 23.3791 4.14419 20.7726 3.20563ZM28.4718 9.86875H23.7506C24.1747 11.6461 24.4251 13.5754 24.4852 15.5625H30.0931C29.9585 13.5183 29.3873 11.5854 28.4718 9.86875ZM28.4718 23.125C29.3873 21.4083 29.9585 19.4817 30.0931 17.4375H24.4852C24.4251 19.4246 24.1747 21.3477 23.7506 23.125H28.4718ZM27.2737 25H23.2202C22.6683 26.6727 21.8706 28.3985 20.7726 29.7944C23.3791 28.8558 25.6322 27.1716 27.2737 25ZM16.9375 30.4659C19.0307 29.7623 20.4739 27.075 21.2361 25H16.9375V30.4659ZM16.9375 23.125H21.8197C22.2753 21.3728 22.5453 19.4448 22.6095 17.4375H16.9375V23.125ZM16.9375 15.5625H22.6095C22.5452 13.5552 22.2753 11.6272 21.8197 9.875H16.9375V15.5625ZM16.9375 8H21.2361C20.4739 5.92506 19.0307 3.23775 16.9375 2.53413V8ZM3.52825 9.875C2.61262 11.5917 2.0415 13.5183 1.90688 15.5625H7.51475C7.57487 13.5754 7.82525 11.6523 8.24937 9.875H3.52825ZM4.72631 8H8.77981C9.33169 6.32731 10.1294 4.6015 11.2274 3.20563C8.62094 4.14419 6.36775 5.82838 4.72631 8ZM15.0625 2.53413C12.9693 3.23775 11.5261 5.925 10.7639 8H15.0625V2.53413ZM15.0625 9.875H10.1803C9.72469 11.6272 9.45469 13.5552 9.3905 15.5625H15.0625V9.875ZM15.0625 17.4312H9.3905C9.45475 19.4385 9.72475 21.3728 10.1803 23.125H15.0625V17.4312ZM15.0625 30.4659V24.9937H10.7639C11.5261 27.0687 12.9693 29.7623 15.0625 30.4659ZM11.2274 29.7944C10.1296 28.3987 9.33187 26.6668 8.77981 24.9937H4.72631C6.36775 27.1654 8.62094 28.8558 11.2274 29.7944ZM3.52825 23.125H8.24937C7.82525 21.3477 7.57487 19.4183 7.51475 17.4312H1.90688C2.0415 19.4754 2.61269 21.4083 3.52825 23.125Z" fill="#0F0E17"/>
</svg>
